<svg fill="none" height="32" viewBox="0 0 32 32" width="32" xmlns="http://www.w3.org/2000/svg"><path d="m18.13 6.99625h-.6152c-.2433-3.16221-3.1574-5.49625-6.4992-5.49625-3.34177 0-6.25581 2.33404-6.49917 5.49625h-.78643c-1.51604 0-2.73 1.23148-2.73 2.73v16.50995c0 1.5161 1.23148 2.73 2.73 2.73h11.3338c.1695.5998.7198 1.0338 1.3662 1.0338h12.18c.78 0 1.42-.632 1.42-1.4144v-13.1611c0-.7925-.64-1.4245-1.42-1.4245h-7.75v-4.27375c0-1.51605-1.2315-2.73-2.73-2.73zm-14.4 2h.77v1.50375c0 .5523.44772 1 1 1s1-.4477 1-1v-1.50375h9.0312v1.50375c0 .5523.4478 1 1 1 .5523 0 1-.4477 1-1v-1.50375h.5988c.4015 0 .73.32604.73.73v4.96435h-15.86v-4.96435c0-.40149.32604-.73.73-.73zm7.2856-5.49625c2.4237 0 4.2456 1.60847 4.4881 3.49625h-8.9762c.24252-1.88778 2.06443-3.49625 4.4881-3.49625zm9.8444 19.2387c.5167.178 1.0849.2769 1.6869.2769 2.5535 0 4.4843-1.7649 4.4843-3.801v-2.6834c0-.2761.2239-.5.5-.5.2762 0 .5.2239.5.5v2.6834c0 2.7216-2.5218 4.801-5.4843 4.801-.5841 0-1.1519-.0814-1.6869-.2332zm-17.86-5.7181h15.86v2.1597h-15.86zm0 6.6494v-2.1597h15.86v2.1597zm0 2.33h15.86v.2462c0 .394-.3185.72-.73.72h-14.4c-.40148 0-.73-.326-.73-.73z" fill="#212121"/></svg>